<?xml version="1.0" encoding="utf-8"?>
<!-- Generator: Adobe Illustrator 24.0.3, SVG Export Plug-In . SVG Version: 6.00 Build 0)  -->
<svg version="1.1" id="b-whatwedo" xmlns="http://www.w3.org/2000/svg" xmlns:xlink="http://www.w3.org/1999/xlink" x="0px" y="0px"
	 viewBox="0 0 215.48 326" style="enable-background:new 0 0 215.48 326;" xml:space="preserve">
<style type="text/css">
	.st0{fill:#FDA305;}
</style>
<g>
	<path class="st0" d="M196.3,82.38c-0.08-1.56-0.17-3.13-0.35-4.68c-0.02-0.2-0.06-0.39-0.08-0.59
		c-1.63-13.5-6.95-26.57-16.05-38.63l0,0C118.7-36.77-0.15,5.43,0,103.81v157.78c0,0,0.24,61.8,0.24,63.91
		c0,0,14.34-18.35,19.92-25.66c33.76-44.22,77.57-83.09,119.61-120.55c1.9-1.69,23.03-21.63,27.83-27.04
		c1.15-1.29,2.26-2.62,3.36-3.94c0.51-0.61,1.02-1.23,1.52-1.85c0.89-1.1,1.77-2.22,2.63-3.35c0.78-1.03,1.55-2.08,2.3-3.14
		c0.62-0.86,1.25-1.72,1.84-2.6c1.38-2.03,2.71-4.09,3.97-6.22c1.22-2.06,2.34-4.13,3.39-6.21c0.37-0.73,0.69-1.47,1.04-2.2
		c0.64-1.34,1.28-2.68,1.85-4.02c0.39-0.91,0.72-1.83,1.07-2.74c0.45-1.16,0.9-2.32,1.3-3.48c0.35-1.02,0.65-2.04,0.96-3.06
		c0.32-1.04,0.63-2.09,0.9-3.13c0.29-1.11,0.54-2.21,0.78-3.32c0.21-0.94,0.41-1.89,0.58-2.83c0.22-1.19,0.41-2.38,0.57-3.57
		c0.12-0.84,0.21-1.67,0.3-2.5c0.13-1.28,0.25-2.56,0.32-3.84c0.04-0.7,0.06-1.4,0.08-2.1c0.04-1.4,0.06-2.79,0.02-4.18
		C196.37,83.41,196.33,82.89,196.3,82.38"/>
	<path class="st0" d="M188.88,168.57c-11.08,12.25-24.19,22.55-37.48,32.69c-45.03,34.38-91.95,70.28-129.28,111.99
		c-3.77,4.21-7.48,8.48-11.19,12.74h102.7c56.37-0.37,101.85-42.33,101.85-94.34C215.48,207.52,205.45,185.28,188.88,168.57"/>
</g>
</svg>
